<svg xmlns="http://www.w3.org/2000/svg" viewBox="0 0 512 512">
  <rect width="512" height="512" rx="64" fill="#4f46e5"/>
  <path d="M256 100c-86.2 0-156 69.8-156 156s69.8 156 156 156 156-69.8 156-156-69.8-156-156-156zm0 280c-68.4 0-124-55.6-124-124s55.6-124 124-124 124 55.6 124 124-55.6 124-124 124z" fill="white"/>
  <path d="M256 180c-41.4 0-76 34.6-76 76s34.6 76 76 76 76-34.6 76-76-34.6-76-76-76zm0 120c-24.3 0-44-19.7-44-44s19.7-44 44-44 44 19.7 44 44-19.7 44-44 44z" fill="white"/>
  <rect x="240" y="340" width="32" height="72" rx="8" fill="white"/>
</svg>
